HIERARCHY
ROOT Bip001_Pelvis
{
  OFFSET 7.937 94.8971 -8.5489
  CHANNELS 6 Xposition Yposition Zposition Zrotation Xrotation Yrotation
  JOINT Bip001_Spine
  {
    OFFSET 1.44608e-005 10.4157 -0.0118244
    CHANNELS 3 Zrotation Xrotation Yrotation
    JOINT Bip001_L_Thigh
    {
      OFFSET 11.2582 -10.4157 0.0118432
      CHANNELS 3 Zrotation Xrotation Yrotation
      JOINT Bip001_L_Calf
      {
        OFFSET -0.720717 -44.8687 0.366937
        CHANNELS 3 Zrotation Xrotation Yrotation
        JOINT Bip001_L_Foot
        {
          OFFSET -0.664439 -41.3745 -3.62995
          CHANNELS 3 Zrotation Xrotation Yrotation
          JOINT Bip001_L_Toe0
          {
            OFFSET 0.0541047 -10.4146 13.4033
            CHANNELS 3 Zrotation Xrotation Yrotation
            End Site
            {
              OFFSET -1.04503e-005 0 7.70137
            }
          }
        }
      }
    }
    JOINT Bip001_R_Thigh
    {
      OFFSET -11.2582 -10.4156 0.0118122
      CHANNELS 3 Zrotation Xrotation Yrotation
      JOINT Bip001_R_Calf
      {
        OFFSET 0.72059 -44.8687 0.36676
        CHANNELS 3 Zrotation Xrotation Yrotation
        JOINT Bip001_R_Foot
        {
          OFFSET 0.664321 -41.3745 -3.62979
          CHANNELS 3 Zrotation Xrotation Yrotation
          JOINT Bip001_R_Toe0
          {
            OFFSET -0.05417 -10.4146 13.4033
            CHANNELS 3 Zrotation Xrotation Yrotation
            End Site
            {
              OFFSET -1.04873e-005 0 7.70137
            }
          }
        }
      }
    }
    JOINT Bip001_Spine1
    {
      OFFSET 1.90638e-005 14.8539 1.10727
      CHANNELS 3 Zrotation Xrotation Yrotation
      JOINT Bip001_Spine2
      {
        OFFSET 2.28934e-005 14.7848 -1.7233
        CHANNELS 3 Zrotation Xrotation Yrotation
        JOINT Bip001_Neck
        {
          OFFSET 2.24514e-005 15.6905 -0.498826
          CHANNELS 3 Zrotation Xrotation Yrotation
          JOINT Bip001_L_Clavicle
          {
            OFFSET 6.17691 -0.000591152 0.00852867
            CHANNELS 3 Zrotation Xrotation Yrotation
            JOINT Bip001_L_UpperArm
            {
              OFFSET 11.773 -0.0611878 0.00197697
              CHANNELS 3 Zrotation Xrotation Yrotation
              JOINT Bip001_L_Forearm
              {
                OFFSET 26.4515 0.0817568 -2.19579
                CHANNELS 3 Zrotation Xrotation Yrotation
                JOINT Bip001_L_Hand
                {
                  OFFSET 32.8677 0.156744 1.67112
                  CHANNELS 3 Zrotation Xrotation Yrotation
                  JOINT Bip001_L_Finger0
                  {
                    OFFSET 6.16268 -2.25226 6.01674
                    CHANNELS 3 Zrotation Xrotation Yrotation
                    End Site
                    {
                      OFFSET 4.30499 -1.46662 0.618148
                    }
                  }
                  JOINT Bip001_L_Finger1
                  {
                    OFFSET 11.2957 -0.718374 -0.201963
                    CHANNELS 3 Zrotation Xrotation Yrotation
                    End Site
                    {
                      OFFSET 6.31952 -0.405163 -0.0802303
                    }
                  }
                }
              }
            }
          }
          JOINT Bip001_R_Clavicle
          {
            OFFSET -6.17691 -0.000574027 0.00851165
            CHANNELS 3 Zrotation Xrotation Yrotation
            JOINT Bip001_R_UpperArm
            {
              OFFSET -11.773 -0.0611516 0.00194365
              CHANNELS 3 Zrotation Xrotation Yrotation
              JOINT Bip001_R_Forearm
              {
                OFFSET -26.4514 0.0822334 -2.19736
                CHANNELS 3 Zrotation Xrotation Yrotation
                JOINT Bip001_R_Hand
                {
                  OFFSET -32.8677 0.156817 1.67144
                  CHANNELS 3 Zrotation Xrotation Yrotation
                  JOINT Bip001_R_Finger0
                  {
                    OFFSET -6.1627 -2.25224 6.0167
                    CHANNELS 3 Zrotation Xrotation Yrotation
                    End Site
                    {
                      OFFSET -4.30499 -1.46662 0.618134
                    }
                  }
                  JOINT Bip001_R_Finger1
                  {
                    OFFSET -11.2958 -0.718344 -0.201994
                    CHANNELS 3 Zrotation Xrotation Yrotation
                    End Site
                    {
                      OFFSET -6.31952 -0.405146 -0.0802475
                    }
                  }
                }
              }
            }
          }
          JOINT Bip001_Head
          {
            OFFSET 1.11782e-005 11.4912 2.09908
            CHANNELS 3 Zrotation Xrotation Yrotation
            End Site
            {
              OFFSET 2.95144e-005 21.2823 -2.83069e-005
            }
          }
        }
      }
    }
  }
}
MOTION
Frames:	13
Frame Time:	0.04
6.69705 95.5442 -7.41684 -0.657252 -1.14135 6.37334 -0.420569 0.176819 1.44786 6.94675 -7.8433 6.09738 -0.870676 15.2102 -2.94456 -3.60543 -5.81703 -2.01829 0.687866 -9.88618 0.114325 -6.12976 -2.44997 -2.31924 0.790464 13.3288 0.24943 -0.0682439 -8.41155 -12.741 -0.56543 -11.5569 0.636936 -0.944786 0.341733 2.89427 -0.944782 0.341732 2.89426 -2.27042 -2.43835 -3.80769 -27.9363 6.40708 -8.17949 -46.0473 39.5139 3.70946 13.2834 4.3739 -23.3929 -4.8745 -0.306643 -0.977045 8.82781e-032 -3.18055e-015 1.59028e-015 8.82782e-032 -3.18056e-015 1.59028e-015 12.2282 7.88854 25.4851 18.8452 -5.15831 51.0089 -48.0219 5.77193 49.0885 -34.9912 14.0554 -7.45079 -6.36111e-015 -3.18055e-015 3.18055e-015 -4.77083e-015 -3.18056e-015 3.97569e-015 0.720834 9.24878 -4.48267 
6.73851 95.5416 -7.50598 -0.68965 -1.13781 6.26247 -0.421599 0.205979 1.46965 6.93114 -7.9552 6.09118 -0.847851 15.294 -2.91537 -3.58338 -5.83078 -1.95805 0.694542 -9.88598 0.123325 -6.13023 -2.57185 -2.24151 0.807826 13.3387 0.219547 -0.0430838 -8.34192 -12.7028 -0.558979 -11.5569 0.629537 -0.933437 0.400083 2.93692 -0.938432 0.400085 2.93683 -2.46941 -2.26727 -3.76101 -27.9874 6.32462 -8.32053 -45.8496 39.5189 3.72432 13.3973 4.8038 -23.32 -5.18045 -0.280755 -1.07589 -6.36111e-015 0 -0 -6.36111e-015 3.18056e-015 1.59028e-015 12.8686 7.82906 25.3315 21.1645 -5.69228 48.5669 -50.7014 4.86483 53.8756 -34.4036 13.3406 -6.87784 1.59028e-015 3.18055e-015 1.59028e-015 3.18055e-015 1.59028e-015 1.59028e-015 1.00156 9.25944 -4.58025 
6.77685 95.5368 -7.60839 -0.753368 -1.09339 6.09978 -0.422998 0.235922 1.5142 6.95949 -8.13862 6.06351 -0.86515 15.4345 -2.84222 -3.55966 -5.86888 -1.85277 0.69408 -9.88579 0.107388 -6.11223 -2.7516 -2.28946 0.782831 13.3389 0.382345 -0.0348821 -8.25148 -12.6965 -0.553296 -11.5567 0.6258 -0.938843 0.459517 3.0272 -0.939634 0.459519 3.02706 -2.26813 -2.20311 -3.91419 -28.1507 6.19394 -8.27712 -45.9127 39.5889 3.75664 13.3757 4.75418 -23.3616 -5.28998 -0.260848 -1.23318 6.36111e-015 6.36111e-015 1.59028e-015 1.59028e-015 3.18056e-015 3.18055e-015 14.2596 8.11302 24.6542 20.3578 -5.97048 47.5596 -51.2343 4.86085 56.5875 -36.68 12.7207 -5.35827 7.95139e-015 0 4.77083e-015 3.18055e-015 0 1.98785e-015 0.794581 9.43406 -4.61266 
6.84533 95.5382 -7.72185 -0.740914 -0.99996 5.99444 -0.423777 0.24792 1.47927 6.87282 -8.29277 5.94496 -0.87579 15.4437 -2.55909 -3.5169 -5.81676 -1.85911 0.680323 -9.8856 0.114766 -6.24919 -2.96829 -2.34556 0.856306 13.3839 0.361152 0.027265 -8.19562 -12.5098 -0.574944 -11.5563 0.647884 -0.940583 0.483769 2.95655 -0.93689 0.483764 2.95683 -2.03122 -1.64688 -3.90165 -28.3797 5.68486 -8.50101 -46.1584 39.5636 4.01714 13.2194 4.46848 -23.442 -4.7827 -0.202481 -1.32426 3.18055e-015 0 -6.36111e-015 6.36111e-015 0 -6.36111e-015 15.9304 7.87334 23.6318 20.2901 -5.70311 45.404 -52.2148 3.42594 61.4631 -37.8053 12.1256 -3.42521 -3.18055e-015 -3.18055e-015 -7.95139e-016 -6.36111e-015 3.18056e-015 -2.38542e-015 0.473529 9.46686 -4.45445 
6.92063 95.5341 -7.8116 -0.7062 -0.941376 5.91869 -0.424408 0.258533 1.40003 6.77676 -8.39214 5.92094 -0.882572 15.4523 -2.47742 -3.46329 -5.7902 -1.74914 0.679483 -9.88545 0.118529 -6.34088 -3.14314 -2.39106 0.798608 13.4586 0.470315 0.142762 -8.18889 -12.407 -0.609931 -11.5518 0.64997 -0.926407 0.505809 2.7962 -0.926408 0.50581 2.7962 -1.71287 -0.741317 -3.84798 -28.7623 4.87958 -8.90211 -46.411 39.5924 4.43227 13.2028 4.48178 -23.5369 -4.62586 -0.213836 -1.30258 -4.77083e-015 6.36111e-015 3.18055e-015 -6.36111e-015 3.18056e-015 3.18055e-015 18.0526 7.45384 22.907 21.2209 -6.01738 42.5869 -53.3251 2.4391 68.0012 -37.0613 10.7553 -2.21251 -1.32417e-031 3.18055e-015 2.38542e-015 1.59028e-015 6.36111e-015 7.95139e-016 0.0422763 9.83334 -4.2041 
6.96463 95.5356 -7.83279 -0.700762 -1.09363 5.73115 -0.410859 0.326475 1.26872 6.8069 -8.26396 6.23283 -0.90605 15.4668 -2.52177 -3.41536 -5.81583 -1.71438 0.680875 -9.88534 0.134924 -6.34968 -3.11869 -2.23885 0.748066 13.4373 0.547773 0.208289 -8.14221 -12.3053 -0.619258 -11.5496 0.662342 -0.937173 0.642608 2.5361 -0.937171 0.642608 2.5361 -1.17931 0.647691 -3.69455 -29.1785 3.60895 -9.44028 -46.5397 39.7778 4.61019 13.198 4.52097 -23.4403 -4.51219 -0.236712 -1.33078 -0 -6.36111e-015 -0 1.59028e-015 -6.36111e-015 -0 19.7215 6.40832 22.1941 22.1186 -5.16454 39.0369 -52.8296 1.53562 74.4911 -38.5825 9.18551 -0.568668 -1.59028e-015 9.54166e-015 -3.18055e-015 -3.18055e-015 9.54167e-015 -1.59028e-015 -0.32101 10.2686 -3.81736 
7.00138 95.529 -7.83206 -0.683739 -1.34145 5.46868 -0.391567 0.440307 1.19576 6.83839 -8.0757 6.63549 -0.925525 15.5183 -2.73047 -3.36036 -5.89111 -1.60573 0.683847 -9.88528 0.159238 -6.36353 -3.0743 -2.00685 0.695944 13.484 0.56609 0.304648 -8.14655 -12.1988 -0.655192 -11.5477 0.674484 -0.904718 0.871205 2.39119 -0.904715 0.871202 2.39118 -0.857922 2.19419 -3.63799 -29.6328 2.26934 -10.1675 -46.3634 40.1173 4.49621 13.063 4.49775 -23.1828 -4.65485 -0.240629 -1.5151 1.59028e-015 -3.18055e-015 1.59028e-015 8.82782e-032 -3.18056e-015 1.59028e-015 22.5252 5.47663 21.5994 20.9257 -3.63493 33.9646 -51.7426 1.07077 80.553 -39.3219 8.09412 1.89873 -4.77083e-015 -6.36111e-015 7.15625e-015 -6.36111e-015 -3.18056e-015 7.95139e-015 -0.467552 10.8591 -3.64131 
7.05236 95.5231 -7.85124 -0.62437 -1.50488 5.26339 -0.412835 0.576091 1.0984 6.78914 -7.98538 6.73805 -0.92537 15.4947 -2.71387 -3.32701 -5.92024 -1.43124 0.684858 -9.88147 0.168427 -6.43655 -3.15754 -1.95284 0.671162 13.5921 0.614693 0.423147 -8.18356 -12.0047 -0.711166 -11.5459 0.705596 -0.956102 1.14304 2.19768 -0.956103 1.14304 2.19768 -0.154246 3.51768 -3.7339 -29.8305 0.908469 -10.51 -46.6172 40.4632 4.07307 13.0937 4.47316 -22.9278 -4.56624 -0.179061 -1.40884 -3.18055e-015 9.54166e-015 1.59028e-015 -3.18055e-015 9.54167e-015 3.18055e-015 24.2541 4.49839 20.8775 20.725 -0.708216 28.5823 -51.7668 1.00122 85.0727 -35.902 6.58858 4.303 -6.36111e-015 6.36111e-015 4.77083e-015 -1.59028e-015 6.36111e-015 4.77083e-015 -0.767158 11.7643 -3.42627 
7.07984 95.5213 -7.87489 -0.580274 -1.63231 5.0979 -0.39431 0.722977 0.989909 6.73544 -7.94826 6.74232 -0.968567 15.453 -2.64233 -3.30123 -5.92557 -1.25563 0.690567 -9.87382 0.20265 -6.52127 -3.27021 -1.88721 0.64811 13.6681 0.522597 0.550722 -8.20477 -11.737 -0.768062 -11.5439 0.757271 -0.928024 1.43795 1.98162 -0.928024 1.43795 1.98162 0.292289 4.97332 -3.82032 -30.397 -0.571701 -10.679 -46.2754 40.6888 3.53789 13.3403 5.10917 -22.8165 -4.52132 -0.150603 -1.67517 -4.77083e-015 3.18055e-015 1.59028e-015 -4.77083e-015 6.36111e-015 3.18055e-015 26.3969 3.50823 20.4696 19.8361 4.73442 22.5401 -50.1257 1.33234 86.3156 -31.9955 5.43293 5.0677 -6.36111e-015 -6.36111e-015 6.36111e-015 -6.36111e-015 -6.36111e-015 6.36111e-015 -1.18117 12.5368 -3.23366 
7.04921 95.5106 -7.93374 -0.586115 -1.71934 5.01531 -0.349253 0.873533 0.881654 6.76185 -8.05823 6.64331 -1.08234 15.5234 -2.51213 -3.26556 -5.94685 -1.09235 0.689794 -9.87185 0.227056 -6.51292 -3.46307 -1.66405 0.610865 13.7861 0.51167 0.603571 -8.23755 -11.757 -0.815804 -11.536 0.756438 -0.84394 1.74059 1.76558 -0.843936 1.74059 1.76558 0.456385 6.3119 -3.88227 -30.6454 -1.86337 -10.9856 -46.0933 40.7445 3.14811 13.2541 4.79184 -23.0613 -4.3483 -0.128491 -1.70747 3.18055e-015 1.27222e-014 -1.59028e-015 3.18055e-015 9.54167e-015 -3.18055e-015 28.4652 2.65123 20.3654 18.6938 12.5463 16.5493 -44.6424 1.91463 84.396 -25.5214 6.87706 3.28019 1.59028e-015 -1.59028e-015 -0 3.18055e-015 -1.59028e-015 -0 -1.42091 13.3019 -3.15111 
7.10582 95.5101 -7.97799 -0.496142 -1.82302 4.89628 -0.314489 1.04428 0.787748 6.58473 -8.06366 6.72103 -1.0329 15.4279 -2.47332 -3.26109 -5.90149 -1.00192 0.688498 -9.87025 0.230534 -6.69985 -3.63015 -1.55074 0.651371 13.8866 0.47898 0.689045 -8.26916 -11.6378 -0.865633 -11.5299 0.773067 -0.781202 2.08321 1.57841 -0.7812 2.08321 1.5784 0.410839 7.47751 -3.84196 -30.6593 -2.98209 -11.2032 -45.8216 40.8776 2.57829 13.0531 4.27952 -23.2804 -4.25016 -0.122388 -1.9138 -1.59028e-015 3.18055e-015 1.59028e-015 -3.18055e-015 6.36111e-015 3.18055e-015 30.7408 2.0882 20.5607 18.9891 21.3125 11.0017 -38.8235 1.6745 79.2246 -13.8765 7.75639 -2.13943 1.98785e-016 -3.97569e-016 -0 3.97569e-016 -9.93924e-016 -0 -1.42305 13.7861 -3.12966 
7.04755 95.5155 -8.15449 -0.613724 -1.72901 4.31016 -0.249157 1.16774 0.805269 6.7786 -8.30371 7.3463 -1.12262 15.5093 -2.44998 -3.2404 -5.89059 -1.02621 0.686349 -9.86899 0.226603 -6.56287 -4.14208 -0.41933 0.710003 13.9066 -0.0112915 0.715355 -8.09251 -11.7678 -0.89392 -11.5239 0.786712 -0.656059 2.33089 1.61204 -0.656061 2.3309 1.61205 0.526629 8.93985 -3.82474 -30.8951 -4.24489 -11.8596 -45.5585 40.6373 2.24708 12.8541 3.77467 -23.5827 -3.9835 -0.156159 -1.66237 -3.18055e-015 3.18055e-015 -1.59028e-015 -6.36111e-015 0 1.59028e-015 32.3277 1.15283 21.0015 20.8724 30.1407 6.86049 -30.1071 -0.605844 70.9396 0.431499 6.45398 -9.52725 -6.36111e-015 -3.18055e-015 1.59028e-015 -6.36111e-015 -4.77083e-015 -1.59028e-015 -1.53132 13.4771 -3.04886 
7.15403 95.5197 -8.2155 -0.418911 -1.77985 4.29811 -0.240226 1.31406 0.709084 6.45391 -8.28653 7.4257 -1.03669 15.2513 -2.54309 -3.196 -5.74047 -0.900656 0.686135 -9.8682 0.232443 -6.90353 -4.3364 -0.800926 0.710941 14.0738 0.21334 0.850911 -8.17271 -11.5158 -0.963226 -11.5114 0.809442 -0.64554 2.62415 1.42017 -0.645542 2.62416 1.42017 0.768698 10.1146 -3.8026 -31.1818 -5.25249 -12.4725 -45.4948 40.9152 2.31242 12.7903 3.29733 -24.0528 -3.7418 -0.168957 -1.36459 -1.59028e-015 -6.36111e-015 1.59028e-015 1.59028e-015 3.18056e-015 -0 33.3644 0.295239 21.1986 24.2437 38.712 3.84545 -23.8233 -4.57137 59.3048 10.5704 2.66015 -15.6038 -5.31048e-032 2.18663e-015 1.39149e-015 -6.55189e-032 1.98785e-015 1.88845e-015 -1.77468 13.4557 -2.86196 
